<svg xmlns="http://www.w3.org/2000/svg" width="30" height="30" viewBox="0 0 30 30">
  <metadata><?xpacket begin="﻿" id="W5M0MpCehiHzreSzNTczkc9d"?>
<x:xmpmeta xmlns:x="adobe:ns:meta/" x:xmptk="Adobe XMP Core 5.6-c142 79.160924, 2017/07/13-01:06:39        ">
   <rdf:RDF xmlns:rdf="http://www.w3.org/1999/02/22-rdf-syntax-ns#">
      <rdf:Description rdf:about=""/>
   </rdf:RDF>
</x:xmpmeta>
                                                                                                    
                                                                                                    
                                                                                                    
                                                                                                    
                                                                                                    
                                                                                                    
                                                                                                    
                                                                                                    
                                                                                                    
                                                                                                    
                                                                                                    
                                                                                                    
                                                                                                    
                                                                                                    
                                                                                                    
                                                                                                    
                                                                                                    
                                                                                                    
                                                                                                    
                                                                                                    
                           
<?xpacket end="w"?></metadata>
<defs>
    <style>
      .cls-1 {
        fill: #285274;
        fill-rule: evenodd;
      }
    </style>
  </defs>
  <path id="insta-logo" class="cls-1" d="M468,39a15,15,0,1,1,15-15A15.015,15.015,0,0,1,468,39Zm5.057-21.082a1.11,1.11,0,1,0,1.11,1.11A1.11,1.11,0,0,0,473.057,17.915Zm-4.934,1.423A4.662,4.662,0,1,0,472.785,24,4.668,4.668,0,0,0,468.123,19.338Zm0,7.648A2.986,2.986,0,1,1,471.109,24,2.989,2.989,0,0,1,468.123,26.986Zm9.406-6.861a5.685,5.685,0,0,0-5.686-5.686h-7.5a5.685,5.685,0,0,0-5.686,5.686v7.505a5.685,5.685,0,0,0,5.686,5.686h7.5a5.685,5.685,0,0,0,5.686-5.686V20.126Zm-1.78,7.505a3.906,3.906,0,0,1-3.906,3.9h-7.5a3.906,3.906,0,0,1-3.906-3.9V20.126a3.906,3.906,0,0,1,3.906-3.9h7.5a3.906,3.906,0,0,1,3.906,3.9v7.505Z" transform="translate(-453 -9)"/>
</svg>
