<svg xmlns="http://www.w3.org/2000/svg" viewBox="0 0 77.23 43.59"><defs><style>.cls-1{fill:#184f78;}.cls-2{opacity:0.3;}.cls-3{fill:#467293;}.cls-4{fill:#fdc00f;}.cls-5{fill:#fed96f;}</style></defs><title>higher-education</title><g id="Camada_2" data-name="Camada 2"><g id="Layer_1" data-name="Layer 1"><path class="cls-1" d="M18.11,16.63V36.48c0,2.27,16,7.11,20.51,7.11s20.5-4.84,20.5-7.11V16.63Z"/><polygon class="cls-2" points="18.11 25.83 38.62 33.57 59.12 25.83 59.12 18.63 18.11 18.63 18.11 25.83"/><polygon class="cls-1" points="38.62 0 0 14.57 38.62 29.15 77.23 14.57 38.62 0"/><polygon class="cls-3" points="38.62 29.15 0 14.57 0 16.57 38.62 31.15 77.23 16.57 77.23 14.57 38.62 29.15"/><path class="cls-4" d="M61.56,32.72H59.84s-3.78,5.33-1.3,10.69h4.31C65.34,38.05,61.56,32.72,61.56,32.72Z"/><path class="cls-5" d="M62.06,42.53a14.74,14.74,0,0,0,.07-1.7,5.08,5.08,0,0,0,0-.95c0-.32-.05-.64-.08-1s-.09-.64-.14-1-.11-.61-.17-.91c-.15-.58-.26-1.13-.41-1.58A13.13,13.13,0,0,0,60.78,34a13.39,13.39,0,0,1,.41,1.52c.12.46.18,1,.29,1.6,0,.29.07.6.1.91a7.3,7.3,0,0,1,.07.94c0,.32,0,.63,0,.94a5.47,5.47,0,0,1,0,.91,14.91,14.91,0,0,1-.19,1.58c-.09.42-.17.76-.23,1h.72C62,43.16,62,42.87,62.06,42.53Z"/><path class="cls-5" d="M60,42.39a12.68,12.68,0,0,1-.19-1.58,5.45,5.45,0,0,1,0-.91c0-.31,0-.62,0-.94a7.3,7.3,0,0,1,.07-.94c0-.31.06-.62.09-.91.11-.58.18-1.14.3-1.6A13.39,13.39,0,0,1,60.62,34a13.13,13.13,0,0,0-.52,1.47c-.16.45-.26,1-.42,1.58,0,.3-.11.6-.16.91a7.66,7.66,0,0,0-.14,1l-.09,1a6.11,6.11,0,0,0,0,.95,14.59,14.59,0,0,0,.08,1.7c0,.34.09.63.13.88h.72C60.13,43.15,60.05,42.81,60,42.39Z"/><path class="cls-5" d="M63.27,41.75a5,5,0,0,0,.08-1,6.09,6.09,0,0,0-.05-1,7.25,7.25,0,0,0-.16-1,11.77,11.77,0,0,0-1.38-3.41,10,10,0,0,0-.91-1.3,11.11,11.11,0,0,1,.81,1.38,11.8,11.8,0,0,1,1.12,3.43,8.42,8.42,0,0,1,.08,1,6,6,0,0,1,0,1,3.78,3.78,0,0,1-.13.86,3.16,3.16,0,0,1-.19.75,5,5,0,0,1-.43,1v0h.77c0-.11.09-.23.13-.34a2.78,2.78,0,0,0,.13-.46A4.12,4.12,0,0,0,63.27,41.75Z"/><path class="cls-5" d="M60.7,34l-.35,9.42h.7Z"/><path class="cls-5" d="M59.3,43.39a5,5,0,0,1-.42-1,3.71,3.71,0,0,1-.2-.75,3.8,3.8,0,0,1-.12-.86,6,6,0,0,1,0-1,8.47,8.47,0,0,1,.09-1,11.81,11.81,0,0,1,1.11-3.43A11.11,11.11,0,0,1,60.54,34a10.74,10.74,0,0,0-.9,1.3,11.5,11.5,0,0,0-1.38,3.41,9,9,0,0,0-.17,1,7.29,7.29,0,0,0,0,1,5,5,0,0,0,.07,1,4.89,4.89,0,0,0,.16.86c0,.18.09.32.13.46s.08.23.13.34h.77Z"/><path class="cls-5" d="M58.75,32.72a2,2,0,1,1,2,1.94A1.95,1.95,0,0,1,58.75,32.72Z"/><ellipse class="cls-2" cx="38.62" cy="14.58" rx="6.14" ry="3.64"/><path class="cls-4" d="M44.63,15.31a3.36,3.36,0,0,1-1.3,1.59l0,.1,16.4,4.85V32.72h2V20.36Z"/><path class="cls-1" d="M32.48,14.07c0-1.73,2.37-3.13,5.28-3.13s5.29,1.4,5.29,3.13-2.37,3.13-5.29,3.13S32.48,15.8,32.48,14.07Z"/></g></g></svg>