<svg xmlns="http://www.w3.org/2000/svg" viewBox="0 0 182.12 393.27"><defs><style>.cls-1{fill:#f38020;}.cls-2{fill:#eeb31f;}.cls-3{fill:#f7cb6b;}.cls-4{fill:#e93859;}.cls-5{fill:#bb3548;}.cls-6{fill:#def1f3;}.cls-7{fill:#e6c536;}.cls-8{fill:#cdaf2f;}.cls-9{fill:#82cfd0;}.cls-10{fill:#a5dbe2;}</style></defs><title>postgraduate-education</title><g id="Camada_2" data-name="Camada 2"><g id="Layer_1" data-name="Layer 1"><path class="cls-1" d="M132.79,324.38c0,29.35-41.59,68.89-41.59,68.89s-41.59-39.54-41.59-68.89S68.23,287,91.2,287,132.79,295,132.79,324.38Z"/><path class="cls-2" d="M119.9,318.57c0,20.26-28.7,47.55-28.7,47.55s-28.71-27.29-28.71-47.55,12.86-25.83,28.71-25.83S119.9,298.3,119.9,318.57Z"/><path class="cls-3" d="M107.83,308.86c0,11.74-16.63,27.55-16.63,27.55S74.57,320.6,74.57,308.86s7.45-15,16.63-15S107.83,297.13,107.83,308.86Z"/><path class="cls-4" d="M57.27,219.33S0,249.39,0,314.54c0,0,3.58,7.15,9.3-1.44S20,280.89,56.55,280.89Z"/><path class="cls-5" d="M124.84,219.33s57.28,30.06,57.28,95.21c0,0-3.59,7.15-9.31-1.44s-10.74-32.21-47.25-32.21Z"/><path class="cls-6" d="M154.64,156a253.57,253.57,0,0,0-11.22-73.74H91.06v22.28a35.08,35.08,0,0,1,0,70.16V287.47h34.26C143,259.73,154.64,211.23,154.64,156Z"/><path class="cls-6" d="M56,139.65a35.08,35.08,0,0,1,35.08-35.08V82.29H38.69A253.57,253.57,0,0,0,27.47,156c0,55.2,11.69,103.7,29.32,131.44H91.06V174.73A35.07,35.07,0,0,1,56,139.65Z"/><path class="cls-7" d="M57.27,287.58a1.6,1.6,0,0,0-1.6,1.6v7.48a1.6,1.6,0,0,0,1.6,1.6H91.06V287.58Z"/><path class="cls-8" d="M124.81,287.58H91.06v10.68h33.75a1.6,1.6,0,0,0,1.6-1.6v-7.48A1.6,1.6,0,0,0,124.81,287.58Z"/><path class="cls-8" d="M115.09,139.65a24,24,0,0,1-24,24v11a35.08,35.08,0,0,0,0-70.16v11A24,24,0,0,1,115.09,139.65Z"/><path class="cls-7" d="M56,139.65a35.07,35.07,0,0,0,35.08,35.08v-11a24,24,0,0,1,0-48.08v-11A35.08,35.08,0,0,0,56,139.65Z"/><path class="cls-9" d="M115.09,139.65a24,24,0,0,0-24-24v48.08A24,24,0,0,0,115.09,139.65Z"/><path class="cls-10" d="M67,139.65a24,24,0,0,0,24,24V115.61A24,24,0,0,0,67,139.65Z"/><path class="cls-5" d="M91.06,0V82.29h52.36C128.45,33.3,102.5,0,91.06,0Z"/><path class="cls-4" d="M91.06,0C79.62,0,53.66,33.3,38.69,82.29H91.06V0Z"/><path class="cls-5" d="M93.26,237.15a2,2,0,0,0-.55-.09H91.06v80.36h1.85a1.83,1.83,0,0,0,1.83-1.83v-2.44l.06-3.53L99.87,245C99.87,238.46,94.38,237.43,93.26,237.15Z"/><path class="cls-4" d="M89.25,237.06h0a2,2,0,0,0-.55.09,3.84,3.84,0,0,0-1,.43,7.32,7.32,0,0,0-5.38,7.53l5.07,64.67.07,3.27v2.44a1.83,1.83,0,0,0,1.14,1.7,1.86,1.86,0,0,0,.88.23h1.66V237.06Z"/></g></g></svg>