<svg xmlns="http://www.w3.org/2000/svg" width="102" height="95" viewBox="0 0 102 95">
  <metadata><?xpacket begin="﻿" id="W5M0MpCehiHzreSzNTczkc9d"?>
<x:xmpmeta xmlns:x="adobe:ns:meta/" x:xmptk="Adobe XMP Core 5.6-c142 79.160924, 2017/07/13-01:06:39        ">
   <rdf:RDF xmlns:rdf="http://www.w3.org/1999/02/22-rdf-syntax-ns#">
      <rdf:Description rdf:about=""/>
   </rdf:RDF>
</x:xmpmeta>
                                                                                                    
                                                                                                    
                                                                                                    
                                                                                                    
                                                                                                    
                                                                                                    
                                                                                                    
                                                                                                    
                                                                                                    
                                                                                                    
                                                                                                    
                                                                                                    
                                                                                                    
                                                                                                    
                                                                                                    
                                                                                                    
                                                                                                    
                                                                                                    
                                                                                                    
                                                                                                    
                           
<?xpacket end="w"?></metadata>
<defs>
    <style>
      .cls-1 {
        fill: #fff;
        fill-rule: evenodd;
      }
    </style>
  </defs>
  <path id="IABRB-logo" class="cls-1" d="M477.405,90.011c0.055-3.27-2.576-2.626-3.947-2.681l-1.371-.055-2.174.055-1.371.056c-1.371.055-4-.588-3.948,2.681s5.83,53.222,5.83,53.222V143.2a0.577,0.577,0,0,0,1.153,0v0.032S477.351,93.281,477.405,90.011ZM471,144.906a3.547,3.547,0,1,0,3.509,3.547A3.528,3.528,0,0,0,471,144.906Zm-2.076-.924c0-.024-0.013-0.046-0.016-0.071H468.9c-0.236-2.06-5.784-50.51-5.839-53.818a6,6,0,0,1,.091-1.174,39.8,39.8,0,0,0-21.813-1.529C432.662,89.064,420,87.606,420,87.606l3.986,62.2,41.227-.409a1.329,1.329,0,0,0,1.291-1.371V148.01A4.554,4.554,0,0,1,468.924,143.982ZM423.848,92.166l-0.061-.783,0.8,0.04c1.514,0.076,3.054.1,4.581,0.1s3.059-.01,4.582-0.084a45.091,45.091,0,0,0,8.991-1.067,20.1,20.1,0,0,1,4.742-.562,35.492,35.492,0,0,1,4.681.286,54.326,54.326,0,0,1,9.09,1.945l-0.037.15a76.483,76.483,0,0,0-9.139-1.1,27.83,27.83,0,0,0-8.952.682,39.989,39.989,0,0,1-9.317,1.28,85.143,85.143,0,0,1-8.538-.184L426.588,117l0.667,12.465c0.228,4.152.429,8.316,0.7,12.457l-0.152.021c-0.395-4.152-.711-8.295-1.057-12.444l-0.994-12.443Zm30.583,20.667c-3.509-.961-4.24,1.108-3.874,2s0.874,1.5-.951,2.3c-1.169.509-.658,2.06,0,2.06s3.217-1.034,3.728,0a1.239,1.239,0,0,1-1.242,1.922c-1.243,0-3.217,0-3,1.847s1.536,1.478,1.974.813a2.225,2.225,0,0,1,2.266-.443c0.366,0.221,1.316,2.66-1.9,2.66s-3.071-2-4.313-1.921-1.974,1.256-1.535,1.921,1.827,1.552.95,2.734-2.047,2.143-3.29.887-1.608-2.217-1.023-2.882,0.365-2.882-2.047-1.589-3.509,1-3.947,0,0-2.4.657-2.106,1.243,1.256,2.12.739,1.682-.887.585-1.847-3.569-.518-3.539-1.4-0.262-1.774.542-1.774,10.152,0.443,10.7.148,0.407-1.33-1.2-1.33a32.086,32.086,0,0,1-6.579-.444c-1.462-.443-2.029-0.886-1.965-2.364s-0.374-3.254-2.494-2.218a3.613,3.613,0,0,0-2.339,3.548c-0.074,1.182-.146,1.626-0.439,1.4s-3.29-3.53-1.316-6.273,4.094-2.447,5.483-2.077,3,1.478,3.289,2.512-1.169,4.877,2.851,4.36,1.581-4.951,1.12-5.173-0.827-.147-0.827.813,0.219,4.648-1.462,2.324c0,0,1.316-2.1,0-3.8s-3.8-4.877-1.682-8.054,1.755-4.729,1.609-5.986,1.023-1.7,1.535-.739,3.143,2.217,1.754,4.877-1.827,7.612-.146,8.646c0,0,1.535-2.481,1.243-4.492s0.585-2.454.877-1.272,0.14,2.7-.585,6.5a3.314,3.314,0,0,0,1.093,3.547s2.836-8.016,9.434-3.4c4.751,3.325-.146,7.537-1.755,7.315C454.8,117.118,457.94,113.793,454.431,112.833Zm7.283,30.375a24.965,24.965,0,0,0-5.048-1.086l-0.636-.072c-0.213-.015-0.426-0.017-0.639-0.026-0.426-.007-0.85-0.059-1.274-0.043l-1.271.047c-0.423.007-.84,0.1-1.259,0.142a22.56,22.56,0,0,0-2.485.467c-0.407.109-.8,0.259-1.2,0.385s-0.8.253-1.218,0.422c-1.665.614-3.347,1.2-5.048,1.728a48.369,48.369,0,0,1-5.212,1.276,22.3,22.3,0,0,1-5.39.38,12.7,12.7,0,0,1-2.672-.464,9.9,9.9,0,0,1-2.445-1.108,12.348,12.348,0,0,0,5.125.7,26.567,26.567,0,0,0,5.1-.862,100.456,100.456,0,0,0,9.937-3.312,19.5,19.5,0,0,1,10.8-1.024,21.314,21.314,0,0,1,5.159,1.641,19.987,19.987,0,0,1,4.533,2.856A28.268,28.268,0,0,0,461.714,143.208ZM500.662,87.39a39.8,39.8,0,0,0-21.8,1.526,6.159,6.159,0,0,1,.081,1.122c-0.055,3.308-5.6,51.757-5.839,53.818h0c0,0.043-.018.083-0.025,0.125a4.552,4.552,0,0,1,2.423,4.029v0.014a1.329,1.329,0,0,0,1.291,1.371l41.227,0.409L522,87.606S509.338,89.064,500.662,87.39ZM513.4,146.364a12.725,12.725,0,0,1-2.673.464,22.3,22.3,0,0,1-5.39-.38,48.427,48.427,0,0,1-5.212-1.276c-1.7-.531-3.383-1.114-5.048-1.728-0.422-.169-0.817-0.289-1.218-0.422s-0.8-.276-1.205-0.385a22.516,22.516,0,0,0-2.485-.467c-0.419-.044-0.836-0.135-1.259-0.142l-1.271-.047c-0.424-.016-0.848.036-1.274,0.043-0.213.009-.426,0.011-0.639,0.026l-0.636.072a24.965,24.965,0,0,0-5.048,1.086,28.268,28.268,0,0,0-4.843,2.048,19.972,19.972,0,0,1,4.534-2.856,21.292,21.292,0,0,1,5.158-1.641,19.5,19.5,0,0,1,10.8,1.024,100.456,100.456,0,0,0,9.937,3.312,26.567,26.567,0,0,0,5.1.862,12.348,12.348,0,0,0,5.125-.7A9.911,9.911,0,0,1,513.4,146.364ZM500.18,116.3l0.552,0.406c0.078-.4,2.462-6.811,8.3-4.165,0,0,2.364-.047,2.648-1.911,0,0,1.04,2.772-1.608,3.727a11.017,11.017,0,0,1,.232,2.229,3.637,3.637,0,0,1-.694,1.869c-1.716,2.267-4.53,1.952-6.818.872,0,0-.946,1.769-0.237,2.868a3.77,3.77,0,0,1-1.715-1.726,6.333,6.333,0,0,1-3.556,2.92,0.894,0.894,0,0,1-.233.1h0.895a1.076,1.076,0,0,1,0,2.151h-7.091a1.076,1.076,0,0,1,0-2.151h1.381c-0.324-.028-0.657-0.059-1-0.1-1.989-.207-3.372-2.057-4.137-3.439a2.84,2.84,0,0,0-2.2-1.452,5.473,5.473,0,0,1-3.5-1.779c-0.519-.575-1.03-1.927.127-2.123a1.543,1.543,0,0,1,1.419.8,2.511,2.511,0,0,0,1.627.948,3.791,3.791,0,0,0,2.05-.071c0.183-.065.364-0.135,0.544-0.208a3.049,3.049,0,0,0,1.45-1.233l0.48-.778a1.514,1.514,0,0,1,1.352-.841h2.283a1.453,1.453,0,1,1,2.742,0H497.8a1.544,1.544,0,0,1,1.535,1.488h0A2.1,2.1,0,0,0,500.18,116.3Zm-17.926-5.118a4.663,4.663,0,0,1-1.04,2.124s0.175-.35-0.4-1.784,0.433-2.039.653-3.377A4.7,4.7,0,0,1,482.254,111.178Zm33.881,5.077L515.141,128.7c-0.346,4.149-.662,8.291-1.057,12.444l-0.152-.021c0.276-4.142.477-8.305,0.7-12.458L515.3,116.2l1.317-24.133a85.179,85.179,0,0,1-8.538.184,39.995,39.995,0,0,1-9.317-1.28,27.833,27.833,0,0,0-8.952-.681,76.422,76.422,0,0,0-9.139,1.1l-0.037-.15a54.326,54.326,0,0,1,9.09-1.945,35.492,35.492,0,0,1,4.681-.286,20.1,20.1,0,0,1,4.742.562,45.1,45.1,0,0,0,8.991,1.067c1.523,0.074,3.053.091,4.582,0.084s3.067-.028,4.581-0.1l0.8-.04-0.06.783Zm-12.165,1.874a1.342,1.342,0,0,1,.3.078c1.435,0.347,3.386.308,4.056-1.22a2.6,2.6,0,0,0-.263-2.817c-0.889-.915-2.262-0.521-3.211.082a11.426,11.426,0,0,0-2.334,2.1C502.845,116.823,502.871,117.945,503.97,118.129Zm-39.018-31.9a6.6,6.6,0,0,0,2.113.326v0h7.712v0a6.6,6.6,0,0,0,2.113-.326,2.589,2.589,0,0,0,1.412-1.109,1.856,1.856,0,0,0,.128-1.573c-0.4-1.054-1.6-1.272-2.57-1.472a19.273,19.273,0,0,0-4.308-.34H470.29a19.278,19.278,0,0,0-4.308.34c-0.969.2-2.167,0.418-2.57,1.472a1.856,1.856,0,0,0,.128,1.573A2.589,2.589,0,0,0,464.952,86.231Zm10.731-9.974c-1.974,1.829-.189,3.5,0,3.436,3.673-1.164,2.3-6.152,2.3-6.152A9.07,9.07,0,0,1,475.683,76.258Zm-3.893-2.051c-2.668,1.829-.932,4.657-0.768,5.488a9.366,9.366,0,0,1,3.071-4.214,7.682,7.682,0,0,0,2.406-8.7C475.67,71.1,474.005,72.688,471.79,74.207Zm0.351-3.647a9.541,9.541,0,0,0,1.021-1.525,9.779,9.779,0,0,0,1.108-3.5A10.954,10.954,0,0,0,471.428,57c-0.161,1.707-.118,3.358-0.911,4.91-0.655,1.28-1.558,2.48-1.464,4,0.13,2.089,1.728,3.685,2,5.674A13.784,13.784,0,0,1,472.141,70.56ZM468.5,76.619c0.007,0.061,2.294-2.572,0-6.9-0.822-1.552-3.509-1.94-3.618-3.713s-1.1,4.988.658,6.817S468.336,75.04,468.5,76.619Zm-4.734,2.136a1.225,1.225,0,0,0,.432.989,1.6,1.6,0,0,0,.3.2,1.648,1.648,0,0,0,2.215-1.688,3.178,3.178,0,0,0-1.1-2.153c-0.509-.459-1.414-0.839-1.555-1.6,0.1,0.539.3,1.06,0.347,1.616a3.094,3.094,0,0,1-.147,1.4A3.894,3.894,0,0,0,463.766,78.755Z" transform="translate(-420 -57)"/>
</svg>
