<svg xmlns="http://www.w3.org/2000/svg" viewBox="0 0 333.72 342.05"><defs><style>.cls-1{fill:#05284d;}.cls-2{fill:#05284e;}.cls-3{fill:#251538;}.cls-4{fill:#ec1e26;}.cls-5{fill:#f5941f;}.cls-6{fill:#26a9df;}.cls-7{fill:#d71e5c;}.cls-8{fill:#1176ba;}.cls-9{fill:#094472;}.cls-10{fill:#662e90;}.cls-11{fill:#8bc541;}.cls-12{fill:#fdeb9e;}.cls-13{fill:#faaf41;}.cls-14{fill:#05612a;}.cls-15{fill:#37b34a;}.cls-16{fill:#fcdb19;}.cls-17{fill:#ef5a2c;}.cls-18{fill:#d6de23;}</style></defs><title>centro-de-idiomas</title><g id="Camada_2" data-name="Camada 2"><g id="Layer_1" data-name="Layer 1"><path class="cls-1" d="M330.91,110.89c-.36,1.32-.29,3.12-1.15,3.88-15.46,13.78-31.06,27.4-46.56,41.14-2.94,2.6-3.05,1.2-3.61-1.7-8.89-45.9-35.34-76.44-80.45-89.49C141.79,48.13,79.57,84.51,64.74,142.61c-15,58.73,18.67,117.24,77,133.93,59.93,17.14,124.12-21.69,136.63-82.65.41-2,.85-4,1.19-6,1.09-6.39,1.1-6.43,6-2.71Q308,202.07,330.36,219c4.27,3.24,4.22,3.31,1.22,8.58-9.53-3.61-19.05-7.25-28.6-10.8-3-1.1-3.88,1-4.74,3.24-5.09,13.5-12.65,25.57-21.33,37a149.06,149.06,0,0,1-36.4,31.18c-12.38,7.64-25.93,12.32-39.92,15.9-1.64.42-3.21,1.12-4.81,1.68-6,.45-11.93,1.31-17.89,1.24-10.21-.11-20.42-.8-30.63-1.25-4.4-1.28-8.9-2.26-13.17-3.88-10.57-4-21-8.3-31.54-12.48-13.32-9-25.92-18.85-36.56-31a174.27,174.27,0,0,1-24.08-41.9c-1.39-5.36-2.76-10.73-4.18-16.08-3.19-12-2.81-24.22-3.27-36.42.79-14.44,4.2-28.34,8.58-42A171.27,171.27,0,0,1,67.42,81.28,176,176,0,0,1,102.76,52,175.08,175.08,0,0,1,147.6,35.73c15.1-1.91,30.2-2.4,45.31-.15,4.76,1.16,9.69,1.87,14.26,3.56,10.71,4,21.26,8.4,31.87,12.64.27.35.47.82.82,1,12.43,7.63,24.08,16.2,33.36,27.64.5.61,1.58.75,2.38,1.11A19.16,19.16,0,0,0,277.39,85a126.55,126.55,0,0,1,18.38,30.23c3.05,7.21,2.79,7.11,10,4.43C314.05,116.56,322.51,113.8,330.91,110.89Z"/><path class="cls-2" d="M208.05,170.69c1,16.67-13,37.09-37,37.25a37,37,0,0,1-37.2-37.24c0-20.83,16.27-36.73,37.16-37.13S209.06,151.63,208.05,170.69Z"/><path class="cls-3" d="M147.26,305.75c10.21.45,20.42,1.14,30.63,1.25,6,.07,11.93-.79,17.89-1.24.23,1.75.4,3.51.71,5.24,1.67,9.29,3.39,18.58,5.09,27.88a151.16,151.16,0,0,1-59.82.37Q144.51,322.5,147.26,305.75Z"/><path class="cls-4" d="M41.91,216.48A174.27,174.27,0,0,0,66,258.38c-5.71,4.61-11.48,9.14-17.09,13.86-3,2.55-5.78,5.41-8.66,8.13-12-12.53-20-27.57-26.86-43.26-1.17-2.66-1.94-5.49-2.89-8.24,1-1,1.74-2.55,2.91-3C22.86,222.65,32.4,219.6,41.91,216.48Z"/><path class="cls-5" d="M43,121.94c-4.38,13.7-7.79,27.6-8.58,42-1.55,6.56-1.55,6.56-9.06,6.57L0,170.58a149.67,149.67,0,0,1,11.25-60.06Z"/><path class="cls-6" d="M276.91,257c8.68-11.43,16.24-23.5,21.33-37,.86-2.26,1.79-4.34,4.74-3.24,9.55,3.55,19.07,7.19,28.6,10.8-3.16,13.09-9.84,24.56-16.93,35.76-3.45,5.45-7.8,10.33-11.74,15.48A130.52,130.52,0,0,1,276.91,257Z"/><path class="cls-7" d="M40.24,280.37c2.88-2.72,5.63-5.58,8.66-8.13C54.51,267.52,60.28,263,66,258.38c10.64,12.16,23.24,22,36.56,31L84.94,318.06C67.62,308.37,52.44,296.15,40.24,280.37Z"/><path class="cls-8" d="M276.91,257a130.52,130.52,0,0,0,26,21.8c-7.75,8-15.05,16.46-23.4,23.75-6.84,6-14.94,10.49-22.49,15.65-2.29-4-4.65-8-6.87-12.07-3.26-6-6.43-12-9.64-17.95A149.06,149.06,0,0,0,276.91,257Z"/><path class="cls-9" d="M240.51,288.18c3.21,6,6.38,12,9.64,17.95,2.22,4.06,4.58,8.05,6.87,12.07a153.91,153.91,0,0,1-55.44,20.68c-1.7-9.3-3.42-18.59-5.09-27.88-.31-1.73-.48-3.49-.71-5.24,1.6-.56,3.17-1.26,4.81-1.68C214.58,300.5,228.13,295.82,240.51,288.18Z"/><path class="cls-10" d="M84.94,318.06l17.61-28.67c10.51,4.18,21,8.47,31.54,12.48,4.27,1.62,8.77,2.6,13.17,3.88q-2.74,16.74-5.5,33.5a167,167,0,0,1-53-18.61C87.44,319.89,86.22,318.92,84.94,318.06Z"/><path class="cls-11" d="M239,51.78c-10.61-4.24-21.16-8.67-31.87-12.64-4.57-1.69-9.5-2.4-14.26-3.56a15.46,15.46,0,0,0,1.59-3.44c1.88-9.83,3.65-19.68,5.45-29.53,17.32,1.94,33.29,8.07,48.77,15.7,2.76,1.36,5.34,3.11,8,4.67-1.26,1.23-2.88,2.25-3.72,3.72C248.24,35,243.67,43.41,239,51.78Z"/><path class="cls-12" d="M147.6,35.73A175.08,175.08,0,0,0,102.76,52L86.32,22.7c6.92-3.52,13.64-7.48,20.78-10.46,11.07-4.62,22.39-8.65,34.55-9.48Q144.62,19.24,147.6,35.73Z"/><path class="cls-13" d="M43,121.94,11.29,110.52a143.72,143.72,0,0,1,30.29-51,11.46,11.46,0,0,0,1.56,2.16Q53.7,70.94,64.39,80.11c.77.66,2,.79,3,1.17A171.27,171.27,0,0,0,43,121.94Z"/><path class="cls-14" d="M330.91,110.89c-8.4,2.91-16.86,5.67-25.19,8.79-7.16,2.68-6.9,2.78-10-4.43A126.55,126.55,0,0,0,277.39,85a19.16,19.16,0,0,1-1.79-3.46c4-3.48,8.06-6.89,12-10.46,4.25-3.86,8.37-7.86,12.54-11.8,9.17,8.68,15.59,19.36,21.42,30.36C325.15,96.48,327.82,103.79,330.91,110.89Z"/><path class="cls-15" d="M300.12,59.3c-4.17,3.94-8.29,7.94-12.54,11.8-3.92,3.57-8,7-12,10.46-.8-.36-1.88-.5-2.38-1.11-9.28-11.44-20.93-20-33.36-27.64-.35-.21-.55-.68-.82-1,4.63-8.37,9.2-16.78,14-25.08.84-1.47,2.46-2.49,3.72-3.72C273.4,32.45,288.3,44,300.12,59.3Z"/><path class="cls-16" d="M67.42,81.28c-1-.38-2.26-.51-3-1.17Q53.68,71,43.14,61.66a11.46,11.46,0,0,1-1.56-2.16A143.44,143.44,0,0,1,86.32,22.7L102.76,52A176,176,0,0,0,67.42,81.28Z"/><path class="cls-17" d="M0,170.58l25.36,0c7.51,0,7.51,0,9.06-6.57.46,12.2.08,24.47,3.27,36.42,1.42,5.35,2.79,10.72,4.18,16.08-9.51,3.12-19,6.17-28.51,9.44-1.17.4-2,1.94-2.91,3A148.42,148.42,0,0,1,0,170.58Z"/><path class="cls-18" d="M147.6,35.73q-3-16.48-5.95-33c8.81-1,17.63-2.8,26.43-2.76C178.71.05,189.33,1.67,200,2.61c-1.8,9.85-3.57,19.7-5.45,29.53a15.46,15.46,0,0,1-1.59,3.44C177.8,33.33,162.7,33.82,147.6,35.73Z"/></g></g></svg>