<svg xmlns="http://www.w3.org/2000/svg" width="30" height="30" viewBox="0 0 30 30">
  <metadata><?xpacket begin="﻿" id="W5M0MpCehiHzreSzNTczkc9d"?>
<x:xmpmeta xmlns:x="adobe:ns:meta/" x:xmptk="Adobe XMP Core 5.6-c142 79.160924, 2017/07/13-01:06:39        ">
   <rdf:RDF xmlns:rdf="http://www.w3.org/1999/02/22-rdf-syntax-ns#">
      <rdf:Description rdf:about=""/>
   </rdf:RDF>
</x:xmpmeta>
                                                                                                    
                                                                                                    
                                                                                                    
                                                                                                    
                                                                                                    
                                                                                                    
                                                                                                    
                                                                                                    
                                                                                                    
                                                                                                    
                                                                                                    
                                                                                                    
                                                                                                    
                                                                                                    
                                                                                                    
                                                                                                    
                                                                                                    
                                                                                                    
                                                                                                    
                                                                                                    
                           
<?xpacket end="w"?></metadata>
<defs>
    <style>
      .cls-1 {
        fill: #285274;
        fill-rule: evenodd;
      }
    </style>
  </defs>
  <path id="fb-logo" class="cls-1" d="M424.5,9.49a15.009,15.009,0,1,0,15.01,15.01A15.026,15.026,0,0,0,424.5,9.49Zm4.164,8.9a0.227,0.227,0,0,1-.227.227h-1.805a0.8,0.8,0,0,0-.8.8v1.89H428.4a0.227,0.227,0,0,1,.226.246L428.4,24.221a0.227,0.227,0,0,1-.226.207h-2.342V33.27a0.226,0.226,0,0,1-.226.226h-3.231a0.226,0.226,0,0,1-.226-0.226V24.429H420.53A0.226,0.226,0,0,1,420.3,24.2V21.539a0.226,0.226,0,0,1,.226-0.227h1.616V18.744a3.241,3.241,0,0,1,3.24-3.241h3.05a0.227,0.227,0,0,1,.227.226v2.664Z" transform="translate(-409.5 -9.5)"/>
</svg>
