<svg xmlns="http://www.w3.org/2000/svg" width="20" height="20" viewBox="0 0 20 20">
  <metadata><?xpacket begin="﻿" id="W5M0MpCehiHzreSzNTczkc9d"?>
<x:xmpmeta xmlns:x="adobe:ns:meta/" x:xmptk="Adobe XMP Core 5.6-c142 79.160924, 2017/07/13-01:06:39        ">
   <rdf:RDF xmlns:rdf="http://www.w3.org/1999/02/22-rdf-syntax-ns#">
      <rdf:Description rdf:about=""/>
   </rdf:RDF>
</x:xmpmeta>
                                                                                                    
                                                                                                    
                                                                                                    
                                                                                                    
                                                                                                    
                                                                                                    
                                                                                                    
                                                                                                    
                                                                                                    
                                                                                                    
                                                                                                    
                                                                                                    
                                                                                                    
                                                                                                    
                                                                                                    
                                                                                                    
                                                                                                    
                                                                                                    
                                                                                                    
                                                                                                    
                           
<?xpacket end="w"?></metadata>
<defs>
    <style>
      .cls-1 {
        fill: #285274;
        fill-rule: evenodd;
      }
    </style>
  </defs>
  <path id="icon-portal-expand" class="cls-1" d="M1487,24a10,10,0,1,0,10-10A10,10,0,0,0,1487,24Zm14.54-4.969a0.673,0.673,0,0,1,0,.948l-3.54,4,3.54,3.995a0.671,0.671,0,1,1-.95.948l-3.94-4.46a0.654,0.654,0,0,1-.2-0.483,0.682,0.682,0,0,1,.19-0.482l3.95-4.461A0.673,0.673,0,0,1,1501.54,19.031Zm-4.78,0a0.673,0.673,0,0,1,0,.948l-3.54,4,3.54,3.995a0.671,0.671,0,0,1-.95.948l-3.95-4.461a0.709,0.709,0,0,1,0-.966l3.95-4.461A0.673,0.673,0,0,1,1496.76,19.031Z" transform="translate(-1487 -14)"/>
</svg>
