<svg xmlns="http://www.w3.org/2000/svg" width="144" height="58" viewBox="0 0 144 58">
  <metadata><?xpacket begin="﻿" id="W5M0MpCehiHzreSzNTczkc9d"?>
<x:xmpmeta xmlns:x="adobe:ns:meta/" x:xmptk="Adobe XMP Core 5.6-c142 79.160924, 2017/07/13-01:06:39        ">
   <rdf:RDF xmlns:rdf="http://www.w3.org/1999/02/22-rdf-syntax-ns#">
      <rdf:Description rdf:about=""/>
   </rdf:RDF>
</x:xmpmeta>
                                                                                                    
                                                                                                    
                                                                                                    
                                                                                                    
                                                                                                    
                                                                                                    
                                                                                                    
                                                                                                    
                                                                                                    
                                                                                                    
                                                                                                    
                                                                                                    
                                                                                                    
                                                                                                    
                                                                                                    
                                                                                                    
                                                                                                    
                                                                                                    
                                                                                                    
                                                                                                    
                           
<?xpacket end="w"?></metadata>
<defs>
    <style>
      .cls-1 {
        fill: #fff;
        fill-rule: evenodd;
      }
    </style>
  </defs>
  <path id="FAE-logo" class="cls-1" d="M1507.93,122.684c0.23,0,.46-0.034.68-0.034q3.42,0,6.83,0l0.03,0.1a0.858,0.858,0,0,0,.38-0.242,0.623,0.623,0,0,0-.06-0.454c-0.1-.282-0.27-0.544-0.36-0.83-0.25-.844-0.48-1.7-0.72-2.545-0.01-.042-0.04-0.079-0.05-0.121-0.29-.91-0.6-1.816-0.88-2.732-0.24-.812-0.46-1.634-0.69-2.452a0.958,0.958,0,0,0-.06-0.152l-0.39-1.312c-0.05-.177-0.11-0.356-0.16-0.534-0.14-.5-0.28-1-0.41-1.505a2.067,2.067,0,0,0-.11-0.443,1.4,1.4,0,0,0-.31-0.292,1.018,1.018,0,0,0-.28.344c-0.07.274-.02,0.575-0.1,0.843-0.22.721-.47,1.43-0.71,2.142l-0.87,2.594a0.141,0.141,0,0,0-.01.064c-0.24.794-.47,1.587-0.71,2.38-0.01.041-.04,0.079-0.05,0.12l-0.39,1.137c-0.05.156-.09,0.317-0.14,0.472-0.29.866-.59,1.731-0.88,2.6a2.244,2.244,0,0,0-.07.252C1507.33,122.516,1507.46,122.692,1507.93,122.684Zm-18.07-31.225q0.015,27.651.01,55.3c0,0.164-.01.329-0.02,0.492-0.06.619,0.05,0.744,0.67,0.744h21.68v0h20.89c0.33,0,.66.007,0.99,0a0.387,0.387,0,0,0,.44-0.5c-0.02-.24-0.06-0.479-0.06-0.719v-55.5a4.571,4.571,0,0,1,.03-0.523c0.09-.618-0.02-0.743-0.65-0.749h-0.13l-42.66,0c-0.2,0-.4-0.007-0.6,0a0.532,0.532,0,0,0-.62.672Q1489.86,91.065,1489.86,91.459Zm2.79,44.057c0.33-.635.58-1.307,0.86-1.964,0.11-.25.21-0.5,0.31-0.752,0.07-.152.13-0.3,0.19-0.454l0.39-.928c0.01-.03.04-0.056,0.05-0.086,0.24-.686.49-1.372,0.73-2.057,0.08-.2.17-0.4,0.25-0.6s0.16-.4.25-0.6c0.12-.278.24-0.555,0.37-0.831,0.01-.03.04-0.055,0.05-0.085l0.69-1.9c0.1-.255.2-0.506,0.3-0.757a2.022,2.022,0,0,0,.11-0.2c0.25-.671.49-1.348,0.76-2.015,0.28-.706.58-1.4,0.88-2.1,0.01-.041.04-0.078,0.05-0.119,0.23-.624.43-1.255,0.68-1.871,0.27-.7.58-1.383,0.87-2.075,0.06-.151.1-0.311,0.16-0.463,0.12-.324.25-0.645,0.38-0.967a0.383,0.383,0,0,0,.05-0.086c0.25-.663.48-1.329,0.74-1.987,0.27-.678.55-1.348,0.83-2.024,0.07-.192.13-0.392,0.21-0.584,0.11-.26.22-0.516,0.34-0.772,0.05-.109.11-0.211,0.16-0.323,0.16-.414.32-0.83,0.47-1.249,0.24-.665.47-1.333,0.71-2,0.01-.031.02-0.064,0.03-0.094,0.29-.646.57-1.292,0.86-1.939a1.925,1.925,0,0,0,.13-0.4,3.8,3.8,0,0,1,.68-1.442,0.8,0.8,0,0,1,.76-0.3q2.565,0,5.13,0c1.67,0,3.35.015,5.02-.006a1.247,1.247,0,0,1,1.38,1.066,1.987,1.987,0,0,0,.22.545c0.05,0.119.13,0.229,0.17,0.351,0.24,0.654.46,1.317,0.72,1.964,0.27,0.675.57,1.334,0.86,2,0.06,0.16.1,0.332,0.16,0.5,0.1,0.275.21,0.549,0.32,0.822,0.06,0.153.12,0.3,0.18,0.453,0.14,0.31.27,0.62,0.4,0.929a0.676,0.676,0,0,0,.06.116c0.23,0.655.47,1.31,0.7,1.964,0.08,0.2.17,0.4,0.25,0.6,0.1,0.242.19,0.488,0.28,0.73s0.21,0.5.31,0.75a1.906,1.906,0,0,1,.11.2c0.25,0.674.49,1.354,0.75,2.023,0.27,0.7.57,1.381,0.86,2.072,0.19,0.441.38,0.878,0.55,1.326,0.26,0.673.47,1.359,0.74,2.03s0.55,1.345.84,2.016c0.02,0.05.06,0.091,0.08,0.142,0.24,0.642.47,1.287,0.71,1.929,0.08,0.224.17,0.444,0.26,0.666l0.24,0.609c0.1,0.25.21,0.5,0.31,0.747a1.505,1.505,0,0,1,.1.17c0.25,0.674.49,1.349,0.74,2.023,0.07,0.194.15,0.383,0.23,0.576,0.1,0.263.2,0.528,0.31,0.79,0.09,0.232.19,0.461,0.29,0.69,0.01,0.04.05,0.072,0.06,0.112,0.26,0.672.5,1.346,0.76,2.016,0.09,0.231.21,0.45,0.32,0.676a3.111,3.111,0,0,1,.23.569,0.66,0.66,0,0,1-.77.918q-4.545-.007-9.1-0.008a1.256,1.256,0,0,1-1.39-1.141,8.346,8.346,0,0,0-.29-0.831c-0.02-.062-0.06-0.118-0.08-0.18-0.26-.775-0.51-1.552-0.77-2.326-0.06-.176-0.14-0.345-0.2-0.52a7.671,7.671,0,0,1-.3-0.925,0.928,0.928,0,0,0-1.02-.88l-11.69.028a2.316,2.316,0,0,1-.49-0.017,0.789,0.789,0,0,0-.98.506c-0.05.11-.13,0.209-0.17,0.322-0.24.78-.46,1.567-0.72,2.342-0.28.845-.59,1.679-0.89,2.517-0.06.165-.13,0.325-0.18,0.491a0.815,0.815,0,0,1-.81.6c-0.12,0-.24.008-0.36,0.008-2.62,0-5.23,0-7.85,0-0.13,0-.26,0-0.39-0.01A0.653,0.653,0,0,1,1492.65,135.516Zm46.75-44.188V146.4a5.794,5.794,0,0,1-.02.722c-0.08.874-.08,0.875,0.81,0.875q20.985,0,41.98-.005c0.61,0,1.22-.045,1.83-0.069V90.057c-0.5-.018-1-0.051-1.51-0.051q-21.135-.005-42.27,0c-0.13,0-.26,0-0.39.008a0.446,0.446,0,0,0-.49.6C1539.36,90.849,1539.4,91.089,1539.4,91.328Zm8.87,11a0.75,0.75,0,0,1,.76-0.818,3.9,3.9,0,0,1,.49-0.021l24.47,0a1.033,1.033,0,0,1,1.2,1.3c-0.04,1.52-.05,3.042,0,4.561,0.03,1.138-.18,1.42-1.31,1.419q-7.455-.006-14.91,0c-0.52,0-.6.1-0.6,0.62,0.01,1.664.01,3.327,0.01,4.991,0,0.12-.01.241,0,0.361a0.467,0.467,0,0,0,.57.547q6.855,0,13.73-.01l0.13,0a0.816,0.816,0,0,1,.99.977v5.318a0.765,0.765,0,0,1-.95.931q-6.6,0-13.2,0c-0.22,0-.44-0.019-0.66-0.03-0.48-.023-0.62.109-0.62,0.577,0.01,1.576.01,3.153,0.01,4.729,0,0.328-.01.656-0.01,0.985a0.45,0.45,0,0,0,.54.563c0.21,0.006.43,0,.65,0h13.63c0.34,0,.68-0.032,1.02-0.016a0.854,0.854,0,0,1,.98,1.049c-0.01.7-.04,1.4-0.04,2.1,0,1,.02,1.991.04,2.986a0.964,0.964,0,0,1-1.14,1.128l-21.44-.006c-1.03,0-2.06,0-3.09,0-0.14,0-.29,0-0.43-0.013a0.773,0.773,0,0,1-.82-0.861c-0.01-.306,0-0.613,0-0.919,0.01-5.254,0-10.508,0-15.762s0.01-10.485,0-15.728C1548.27,102.96,1548.25,102.642,1548.27,102.326ZM1483.55,148c0.26,0,.52.008,0.79,0a0.446,0.446,0,0,0,.5-0.537c-0.01-.273-0.03-0.546-0.03-0.819q-0.015-27.618,0-55.237c0-.262.02-0.524,0.03-0.787a0.51,0.51,0,0,0-.58-0.616c-0.18,0-.37,0-0.56,0q-21.2,0-42.4,0c-0.43,0-.87.075-1.3,0.114v57.8c0.27,0.025.54,0.072,0.82,0.072Q1462.18,148,1483.55,148Zm-32.49-46.513,22.83,0c0.06,0,.11,0,0.17,0a0.921,0.921,0,0,1,1.02,1.1c-0.02,1.323-.04,2.647-0.05,3.971,0,0.426.05,0.853,0.04,1.279a0.779,0.779,0,0,1-.85.908c-0.25.024-.5,0.017-0.75,0.017h-12.61c-0.1,0-.2,0-0.3.009a0.436,0.436,0,0,0-.45.518c0.02,1.937.04,3.873,0.05,5.81a4.337,4.337,0,0,1-.06.619,0.431,0.431,0,0,0,.42.516,3.469,3.469,0,0,0,.4.017q5.925,0,11.85,0c0.1,0,.2,0,0.3,0a0.864,0.864,0,0,1,1.01,1.073c-0.02.7-.04,1.4-0.04,2.1,0,1.006.02,2.013,0.04,3.02a0.854,0.854,0,0,1-1.05,1.057c-3.99,0-7.97,0-11.96,0-0.96,0-.95.013-0.91,0.968,0.02,0.776.01,1.554,0.01,2.331v7.947c0,0.208.01,0.416,0.02,0.623a0.959,0.959,0,0,1-1.09,1.192q-3.675,0-7.33,0c-0.28,0-.57.011-0.85,0a0.739,0.739,0,0,1-.81-0.734c-0.03-.346,0-0.7,0-1.048V103.287c0-.263-0.03-0.525-0.03-0.787A0.869,0.869,0,0,1,1451.06,101.483Z" transform="translate(-1440 -90)"/>
</svg>
